#N canvas 23 64 788 543 10;
#X declare -path . -path ./lib/rj;
#N canvas 80 460 739 559 looper 1;
#X obj 80 23 soundinput;
#X obj 78 383 soundoutput;
#X obj 112 140 *~ 1 0, f 7;
#X msg 297 47 play, f 5;
#X obj 235 24 r \$0-test-sample;
#X obj 233 48 moses 1;
#X obj 223 97 readsf~;
#X msg 187 128 open ../resources/6am.wav \, 1;
#X msg 226 73 0;
#X obj 8 448 declare -path . -path ./lib/rj;
#X obj 418 24 r \$0-t1-button;
#X obj 450 56 r \$0-t2-button;
#X obj 489 85 r \$0-t3-button;
#X obj 433 135 int 1;
#X msg 418 56 1;
#X msg 450 84 2;
#X msg 487 109 3;
#X floatatom 433 160 5 0 0 0 - - -;
#X obj 432 185 s \$0-active;
#X obj 29 279 track \$0-t1 \$0 1;
#X obj 69 303 track \$0-t2 \$0 2;
#X obj 107 325 track \$0-t3 \$0 3;
#X connect 0 0 2 0;
#X connect 2 0 19 0;
#X connect 2 0 20 0;
#X connect 2 0 21 0;
#X connect 3 0 7 0;
#X connect 4 0 5 0;
#X connect 5 0 8 0;
#X connect 5 1 3 0;
#X connect 6 0 2 0;
#X connect 6 1 7 0;
#X connect 7 0 6 0;
#X connect 8 0 6 0;
#X connect 10 0 14 0;
#X connect 11 0 15 0;
#X connect 12 0 16 0;
#X connect 13 0 17 0;
#X connect 14 0 13 0;
#X connect 15 0 13 0;
#X connect 16 0 13 0;
#X connect 17 0 18 0;
#X connect 19 0 1 0;
#X connect 19 1 1 1;
#X connect 20 0 1 0;
#X connect 20 1 1 1;
#X connect 21 0 1 0;
#X connect 21 1 1 1;
#X restore 95 13 pd looper;
#X obj 13 102 vsl 15 79 0 1 0 0 \$0-t1-volume \$0-t1-volume-in empty
0 -9 0 10 -262144 -1 -1 7850 1;
#X obj 33 102 vu 15 80 \$0-t1-vu empty -1 -8 0 7 -228856 -1 1 0;
#X obj 16 203 bng 30 250 50 0 \$0-t1-button empty empty 17 7 0 10 -262144
-1 -1;
#X obj 15 81 hsl 32 15 0 1 0 0 \$0-t1-pan \$0-t1-pan-in empty -2 -8
0 10 -262144 -1 -1 1550 1;
#X text 9 12 mosfez-looper;
#X text 170 11 test sample;
#X obj 243 13 tgl 15 0 \$0-test-sample empty empty 17 7 0 10 -262144
-1 -1 0 1;
#X obj 79 102 vsl 15 79 0 1 0 0 \$0-t2-volume \$0-t2-volume-in empty
0 -9 0 10 -262144 -1 -1 7800 1;
#X obj 99 102 vu 15 80 \$0-t2-vu empty -1 -8 0 7 -228856 -1 1 0;
#X obj 82 203 bng 30 250 50 0 \$0-t2-button empty empty 17 7 0 10 -262144
-1 -1;
#X obj 81 81 hsl 32 15 0 1 0 0 \$0-t2-pan \$0-t2-pan-in empty -2 -8
0 10 -262144 -1 -1 1550 1;
#X obj 146 101 vsl 15 79 0 1 0 0 \$0-t3-volume \$0-t3-volume-in empty
0 -9 0 10 -262144 -1 -1 7800 1;
#X obj 166 101 vu 15 80 \$0-t3-vu empty -1 -8 0 7 -228856 -1 1 0;
#X obj 149 202 bng 30 250 50 0 \$0-t3-button empty empty 17 7 0 10
-262144 -1 -1;
#X obj 148 80 hsl 32 15 0 1 0 0 \$0-t3-pan \$0-t3-pan-in empty -2 -8
0 10 -262144 -1 -1 1550 1;
#X obj 16 238 tgl 15 0 \$0-t1-active \$0-t1-active-in empty 17 7 0
10 -262144 -1 -1 1 1;
#X obj 82 238 tgl 15 0 \$0-t2-active \$0-t2-active-in empty 17 7 0
10 -262144 -1 -1 0 1;
#X obj 148 237 tgl 15 0 \$0-t3-active \$0-t3-active-in empty 17 7 0
10 -262144 -1 -1 0 1;
