#N canvas 938 43 958 971 10;
#X obj 85 11 inlet;
#X obj 59 186 line~;
#X obj 59 243 outlet~;
#X obj 45 74 f \$1;
#X floatatom 48 112 5 0 0 0 - - -;
#X msg 86 112 1 \$1;
#X msg 183 109 0 \$1;
#X obj 86 73 pack \$2;
#X obj 180 6 inlet;
#X obj 181 68 pack \$2;
#X obj 132 242 outlet;
#X obj 237 239 outlet;
#X obj 129 188 delay \$2;
#X obj 235 184 delay \$2;
#X msg 143 74 stop;
#X obj 89 41 t b b;
#X obj 184 37 t b b;
#X obj 234 157 t b;
#X obj 129 161 t b;
#X connect 0 0 15 0;
#X connect 1 0 2 0;
#X connect 3 0 4 0;
#X connect 4 0 1 0;
#X connect 5 0 1 0;
#X connect 5 0 18 0;
#X connect 6 0 1 0;
#X connect 6 0 17 0;
#X connect 7 0 5 0;
#X connect 8 0 16 0;
#X connect 9 0 6 0;
#X connect 12 0 10 0;
#X connect 13 0 11 0;
#X connect 14 0 12 0;
#X connect 14 0 13 0;
#X connect 15 0 7 0;
#X connect 15 1 14 0;
#X connect 16 0 9 0;
#X connect 16 1 14 0;
#X connect 17 0 13 0;
#X connect 18 0 12 0;
