#N canvas 483 125 958 966 10;
#X obj 31 24 inlet;
#X obj 31 381 outlet~;
#X msg 39 148 stop;
#X obj 32 332 tabplay~ \$2;
#X obj 79 101 i 0;
#X floatatom 79 124 5 0 0 0 - - -;
#X obj 31 54 route stop bang;
#X obj 109 101 expr ($i1 + 1) % 2;
#X obj 75 147 sel 0;
#X obj 32 356 *~;
#X obj 12 245 i 0;
#X msg 42 221 1;
#X msg 11 221 0;
#X msg 12 297 stop;
#X obj 12 270 moses 1;
#X obj 183 331 tabplay~ \$2;
#X obj 183 355 *~;
#X obj 163 244 i 0;
#X msg 193 220 1;
#X msg 162 220 0;
#X msg 163 296 stop;
#X obj 163 269 moses 1;
#X obj 116 147 sel 1;
#X obj 133 221 bng 15 250 50 0 empty empty empty 17 7 0 10 -262144
-1 -1;
#X obj 287 220 bng 15 250 50 0 empty empty empty 17 7 0 10 -262144
-1 -1;
#X obj 86 296 ease 0 \$3;
#X msg 51 297 \$3;
#X obj 237 295 ease 0 \$3;
#X msg 202 296 \$3;
#X connect 0 0 6 0;
#X connect 2 0 12 0;
#X connect 2 0 23 0;
#X connect 2 0 24 0;
#X connect 2 0 19 0;
#X connect 3 0 9 0;
#X connect 4 0 5 0;
#X connect 4 0 7 0;
#X connect 5 0 8 0;
#X connect 5 0 22 0;
#X connect 6 0 2 0;
#X connect 6 1 4 0;
#X connect 7 0 4 1;
#X connect 8 0 11 0;
#X connect 8 0 23 0;
#X connect 9 0 1 0;
#X connect 10 0 14 0;
#X connect 11 0 10 1;
#X connect 12 0 10 1;
#X connect 13 0 3 0;
#X connect 14 0 13 0;
#X connect 14 1 26 0;
#X connect 14 1 25 0;
#X connect 15 0 16 0;
#X connect 16 0 1 0;
#X connect 17 0 21 0;
#X connect 18 0 17 1;
#X connect 19 0 17 1;
#X connect 20 0 15 0;
#X connect 21 0 20 0;
#X connect 21 1 28 0;
#X connect 21 1 27 0;
#X connect 22 0 24 0;
#X connect 22 0 18 0;
#X connect 23 0 25 1;
#X connect 24 0 27 1;
#X connect 25 0 9 1;
#X connect 25 2 10 0;
#X connect 26 0 3 0;
#X connect 27 0 16 1;
#X connect 27 2 17 0;
#X connect 28 0 15 0;
