#N canvas 957 0 958 971 10;
#X obj 52 48 inlet;
#X obj 52 78 route stop bang float;
#X obj 52 310 outlet~;
#X obj 51 180 tabplay~ \$2;
#X msg 52 106 stop;
#X obj 52 273 *~;
#X obj 143 222 line~;
#X obj 87 139 t b b b;
#X msg 144 181 1 10;
#X msg 200 181 1;
#X connect 0 0 1 0;
#X connect 1 0 4 0;
#X connect 1 1 7 0;
#X connect 1 2 7 0;
#X connect 3 0 5 0;
#X connect 4 0 3 0;
#X connect 5 0 2 0;
#X connect 6 0 5 1;
#X connect 7 0 3 0;
#X connect 7 1 8 0;
#X connect 7 2 9 0;
#X connect 8 0 6 0;
#X connect 9 0 6 0;
