#N canvas 117 88 958 971 10;
#X obj 165 24 inlet;
#X msg 215 270 stop;
#X obj 164 323 tabwrite~ \$2, f 15;
#X obj 94 220 inlet~;
#X msg 258 270 start \$1;
#X obj 126 272 *~;
#X floatatom 318 174 10 0 0 0 - - -;
#X obj 320 197 delay;
#X msg 273 101 stop;
#X obj 165 55 route stop start;
#X obj 316 107 * -1;
#X obj 317 129 / 44.1;
#X obj 316 84 - \$3;
#X obj 317 151 - \$4;
#X obj 146 237 ease 0 \$4;
#X connect 0 0 9 0;
#X connect 1 0 2 0;
#X connect 3 0 5 0;
#X connect 4 0 2 0;
#X connect 5 0 2 0;
#X connect 6 0 7 0;
#X connect 7 0 14 1;
#X connect 8 0 7 0;
#X connect 9 0 8 0;
#X connect 9 0 14 1;
#X connect 9 1 4 0;
#X connect 9 1 12 0;
#X connect 9 1 14 0;
#X connect 10 0 11 0;
#X connect 11 0 13 0;
#X connect 12 0 10 0;
#X connect 13 0 6 0;
#X connect 14 0 5 1;
#X connect 14 2 1 0;
