#N canvas 810 304 450 671 10;
#X obj 96 21 inlet~;
#X obj 97 612 outlet~;
#X obj 154 613 outlet~;
#X obj 100 549 e_pan;
#N canvas 267 38 291 254 defaults 0;
#X obj 31 32 loadbang;
#X obj 31 104 symbol \$1;
#X msg 105 65 bang;
#X obj 31 64 delay 100;
#X msg 33 158 \; \$1-volume-in 1 \; \$1-pan-in 0.5 \; \$1-active-in
0 \;;
#X connect 0 0 3 0;
#X connect 1 0 4 0;
#X connect 2 0 1 0;
#X connect 3 0 1 0;
#X restore 149 21 pd defaults;
#X obj 101 451 *~;
#X obj 201 383 r \$1-volume;
#X obj 128 524 r \$1-pan;
#X obj 200 432 line~;
#X obj 200 407 pack 0 10;
#X text 36 609 output;
#X text 56 548 pan;
#X text 42 450 volume;
#X text 35 24 input;
#X obj 95 169 *~;
#X obj 111 144 line~;
#X text 24 133 active;
#X obj 112 57 r \$2-active;
#X obj 111 86 == \$3;
#X obj 187 116 s \$1-active-in;
#X obj 111 118 pack 0 10;
#X msg 787 388 amp 80 \, hall 80 \, freq 6000 \, damp 60;
#X obj 209 527 s \$1-vu;
#X obj 201 469 env~;
#X obj 204 494 - 100;
#X obj 247 187 table table-\$1;
#X obj 118 232 tabwrite~ table-\$1;
#X obj 128 356 tabread~ table-\$1;
#X obj 128 330 *~ 44100;
#X obj 129 304 phasor~ 0;
#X msg 130 200 bang;
#X obj 133 255 bng 15 250 50 0 empty empty empty 17 7 0 10 -262144
-1 -1;
#X obj 127 279 f 1;
#X connect 0 0 14 0;
#X connect 3 0 1 0;
#X connect 3 1 2 0;
#X connect 5 0 3 0;
#X connect 5 0 23 0;
#X connect 6 0 9 0;
#X connect 7 0 3 1;
#X connect 8 0 5 1;
#X connect 9 0 8 0;
#X connect 14 0 5 0;
#X connect 14 0 26 0;
#X connect 15 0 14 1;
#X connect 17 0 18 0;
#X connect 18 0 19 0;
#X connect 18 0 20 0;
#X connect 20 0 15 0;
#X connect 23 0 24 0;
#X connect 24 0 22 0;
#X connect 27 0 5 0;
#X connect 28 0 27 0;
#X connect 29 0 28 0;
#X connect 30 0 26 0;
#X connect 31 0 32 0;
#X connect 32 0 29 0;
