#N canvas 991 104 796 836 10;
#X obj 88 153 osc~;
#X obj 79 210 *~ 0.3;
#X obj 77 55 r Channel-A;
#X obj 81 92 * 2000;
#X obj 82 126 + 20;
#X obj 83 293 *~;
#X obj 167 164 osc~;
#X obj 164 212 *~ 0.3;
#X obj 166 94 * 2000;
#X obj 167 128 + 20;
#X obj 259 158 osc~;
#X obj 256 206 *~ 0.3;
#X obj 258 88 * 2000;
#X obj 259 122 + 20;
#X obj 92 348 dac~, f 7;
#X obj 162 57 r Channel-B;
#X obj 254 51 r Channel-B;
#X obj 7 37 vsl 15 128 0 1 0 0 empty empty empty 0 -9 0 10 -262144
-1 -1 1250 1;
#X obj 27 38 vsl 15 128 0 1 0 0 empty empty empty 0 -9 0 10 -262144
-1 -1 0 1;
#X obj 46 37 vsl 15 128 0 1 0 0 empty empty empty 0 -9 0 10 -262144
-1 -1 550 1;
#X obj 239 262 r Channel-D;
#X obj 27 188 vsl 15 128 0 1 0 0 empty empty empty 0 -9 0 10 -262144
-1 -1 12750 1;
#X connect 0 0 1 0;
#X connect 1 0 5 0;
#X connect 2 0 3 0;
#X connect 3 0 4 0;
#X connect 4 0 0 0;
#X connect 5 0 14 0;
#X connect 5 0 14 1;
#X connect 6 0 7 0;
#X connect 7 0 5 0;
#X connect 8 0 9 0;
#X connect 9 0 6 0;
#X connect 10 0 11 0;
#X connect 11 0 5 0;
#X connect 12 0 13 0;
#X connect 13 0 10 0;
#X connect 15 0 8 0;
#X connect 16 0 12 0;
#X connect 17 0 3 0;
#X connect 18 0 8 0;
#X connect 19 0 12 0;
#X connect 20 0 5 1;
#X connect 21 0 5 1;
